<svg xmlns="http://www.w3.org/2000/svg" xmlns:xlink="http://www.w3.org/1999/xlink" width="187" height="72" viewBox="0 0 187 72">
  <defs>
    <style>
      .cls-1 {
        fill: none;
      }

      .cls-2 {
        clip-path: url(#clip-path);
      }

      .cls-3 {
        fill: #231f20;
      }

      .cls-4, .cls-5 {
        fill: #333;
      }

      .cls-5 {
        font-size: 25px;
        font-family: SegoeUI, Segoe UI;
      }
    </style>
    <clipPath id="clip-path">
      <rect id="Rectangle_85" data-name="Rectangle 85" class="cls-1" width="71.454" height="72"/>
    </clipPath>
  </defs>
  <g id="Group_338" data-name="Group 338" transform="translate(-171 -149)">
    <g id="Group_111" data-name="Group 111" transform="translate(171 149)">
      <g id="Group_110" data-name="Group 110" class="cls-2">
        <path id="Path_24" data-name="Path 24" class="cls-3" d="M69.652,36.022s1.995.292,1.787,2.9c-.146,1.845-3.867,6.963-10.473,9.859a4.259,4.259,0,0,1-4.2-.146c-.41.335-5.844,7.452-10.8,7.492-2.9.023-3.687-3.156-3.519-3.826s-4.4,3.5-14.952,7.325C11.627,65.374,6.227,60.78,3.65,57.747-1.482,51.71-1.658,40.84,6.068,24.8c7.1-14.733,16.3-22.948,18.082-24.124.634-.418,1.727-1.3,2.736.025.839,1.1.119,1.6-.852,2.586C18.181,11.3,13.495,17.39,9.664,26.094,7.783,30.368.058,46.755,7.259,55.907c3.189,4.054,11.311,3.687,19.69,0s11.971-5.394,16.785-11.171c1.676-2.011,3.3.335,3.463,1.005s.035,1.631-1.061,5.139c1.79.259,4.3-2.042,6.535-3.8a53.285,53.285,0,0,0,5.159-5.063c1-.955,2.67-1.421,2.537,1.364-.094,1.956,2.973-.378,3.811-.881s5.544-4.358,5.474-6.479" transform="translate(0 0)"/>
        <path id="Path_25" data-name="Path 25" class="cls-4" d="M149.765,66.909a4.164,4.164,0,1,1-4.164-4.164,4.164,4.164,0,0,1,4.164,4.164" transform="translate(-94.036 -41.716)"/>
        <path id="Path_26" data-name="Path 26" class="cls-4" d="M189.67,59a4.164,4.164,0,1,1-4.164-4.164A4.164,4.164,0,0,1,189.67,59" transform="translate(-120.567 -36.461)"/>
        <path id="Path_27" data-name="Path 27" class="cls-4" d="M170.47,34.2a4.164,4.164,0,1,1-4.164-4.164A4.164,4.164,0,0,1,170.47,34.2" transform="translate(-107.801 -19.972)"/>
      </g>
    </g>
    <text id="Charles_Saliba" data-name="Charles
Saliba" class="cls-5" transform="translate(255 176)"><tspan x="0" y="0">CHARLES</tspan><tspan x="0" y="29">SALIBA</tspan></text>
  </g>
</svg>
